<?xml version="1.0" encoding="UTF-8"?>
<svg xmlns="http://www.w3.org/2000/svg" xmlns:xlink="http://www.w3.org/1999/xlink" width="50px" height="50px" viewBox="0 0 50 49" version="1.1">
<g id="surface1">
<path style=" stroke:none;fill-rule:nonzero;fill:rgb(100%,100%,100%);fill-opacity:1;" d="M 44.324219 16.277344 L 44.839844 14.65625 L 43.132812 14.710938 C 42.988281 14.710938 41.941406 14.679688 40.925781 13.957031 C 41 13.964844 41.078125 13.976562 41.15625 13.976562 C 42.199219 13.976562 43.210938 13.359375 43.617188 12.476562 L 44.351562 10.878906 C 43.433594 10.890625 42.589844 10.777344 42.589844 10.777344 C 42.582031 10.773438 41.921875 10.691406 41.15625 9.925781 C 40.605469 9.375 39.925781 9.082031 39.1875 9.082031 C 38.863281 9.082031 38.578125 9.136719 38.328125 9.214844 C 38.367188 9.085938 38.40625 8.953125 38.425781 8.820312 C 38.660156 7.324219 37.679688 6.1875 37.679688 6.1875 L 36.398438 4.628906 L 35.601562 6.460938 C 35.597656 6.464844 35.398438 6.894531 35.039062 7.105469 C 34.929688 6.566406 34.664062 5.960938 34.097656 5.382812 C 33.023438 4.292969 31.71875 4.128906 31.035156 4.128906 C 30.71875 4.128906 30.492188 4.164062 30.4375 4.171875 L 28.886719 4.472656 C 28.976562 4.132812 29.167969 3.542969 29.515625 3.011719 L 30.371094 1.703125 L 28.21875 1.945312 L 27.535156 0.515625 L 26.210938 1.1875 L 24.984375 0 L 23.761719 1.1875 L 22.429688 0.515625 L 21.75 1.945312 L 19.601562 1.703125 L 20.457031 3.011719 C 20.804688 3.542969 20.992188 4.128906 21.082031 4.46875 L 19.605469 4.183594 L 19.554688 4.175781 C 19.480469 4.164062 19.253906 4.128906 18.9375 4.128906 C 18.253906 4.128906 16.949219 4.292969 15.878906 5.382812 C 15.308594 5.960938 15.042969 6.566406 14.933594 7.105469 C 14.574219 6.898438 14.375 6.472656 14.375 6.472656 L 13.578125 4.632812 L 12.277344 6.203125 C 12.117188 6.402344 11.332031 7.476562 11.546875 8.820312 C 11.566406 8.957031 11.605469 9.085938 11.640625 9.21875 C 11.394531 9.140625 11.109375 9.082031 10.785156 9.082031 C 10.046875 9.082031 9.367188 9.375 8.816406 9.925781 C 8.054688 10.691406 7.394531 10.777344 7.398438 10.777344 C 7.398438 10.777344 6.703125 10.898438 5.625 10.878906 L 6.351562 12.476562 C 6.757812 13.359375 7.773438 13.976562 8.816406 13.976562 C 8.894531 13.976562 8.972656 13.96875 9.046875 13.960938 C 8.035156 14.683594 6.988281 14.710938 6.859375 14.714844 L 5.121094 14.65625 L 5.648438 16.277344 C 5.914062 17.109375 6.796875 18.492188 8.492188 18.640625 C 8.308594 19.398438 7.898438 20.246094 7 20.613281 L 5.707031 21.136719 L 6.414062 22.339844 C 6.8125 22.992188 7.746094 23.75 9.078125 23.75 C 9.363281 23.75 9.640625 23.722656 9.910156 23.667969 C 9.976562 23.964844 10.0625 24.261719 10.164062 24.554688 C 10.5625 25.714844 10.21875 26.519531 10.214844 26.53125 L 9.578125 27.84375 L 11.003906 28.210938 C 11.019531 28.21875 11.453125 28.332031 11.992188 28.332031 C 12.238281 28.332031 12.46875 28.308594 12.691406 28.257812 C 12.855469 28.21875 13.015625 28.167969 13.167969 28.105469 C 13.351562 28.429688 13.578125 28.726562 13.839844 28.992188 C 14.75 29.914062 16.046875 30.378906 17.6875 30.378906 L 17.691406 30.378906 L 18.863281 30.363281 L 16.445312 31.347656 L 18.28125 32.21875 C 18.949219 32.539062 19.738281 32.917969 20.542969 33.203125 L 20.316406 33.820312 L 20.949219 34.101562 C 21.003906 34.128906 22.222656 34.664062 24.246094 34.777344 C 24.246094 34.777344 24.734375 34.796875 25.003906 34.796875 C 25.273438 34.796875 25.753906 34.773438 25.753906 34.773438 C 27.765625 34.65625 28.972656 34.128906 29.03125 34.101562 L 29.664062 33.816406 L 29.433594 33.203125 C 30.261719 32.90625 31.082031 32.511719 31.71875 32.207031 L 33.523438 31.347656 L 31.109375 30.359375 L 32.285156 30.375 C 33.929688 30.375 35.222656 29.910156 36.136719 28.988281 C 36.394531 28.722656 36.621094 28.429688 36.804688 28.101562 C 36.957031 28.164062 37.121094 28.214844 37.285156 28.253906 C 37.503906 28.304688 37.738281 28.328125 37.984375 28.328125 C 38.511719 28.328125 38.949219 28.214844 38.960938 28.210938 L 40.390625 27.839844 L 39.769531 26.550781 C 39.753906 26.519531 39.410156 25.710938 39.808594 24.554688 C 39.910156 24.257812 39.996094 23.960938 40.0625 23.664062 C 40.332031 23.71875 40.613281 23.75 40.902344 23.75 C 42.597656 23.75 43.410156 22.578125 43.566406 22.324219 L 44.265625 21.132812 L 42.972656 20.609375 C 42.074219 20.246094 41.664062 19.394531 41.484375 18.636719 C 43.152344 18.5 44.050781 17.117188 44.324219 16.277344 Z M 21.195312 5.027344 L 21.175781 5.03125 L 21.191406 5.015625 Z M 21.195312 5.027344 "/>
<path style=" stroke:none;fill-rule:nonzero;fill:rgb(100%,100%,100%);fill-opacity:1;" d="M 24.984375 4.957031 C 23.617188 4.957031 22.589844 5.398438 22.363281 5.914062 L 24.984375 6.929688 L 27.605469 5.914062 C 27.382812 5.398438 26.355469 4.957031 24.984375 4.957031 Z M 24.984375 4.957031 "/>
<path style=" stroke:none;fill-rule:nonzero;fill:rgb(100%,100%,100%);fill-opacity:1;" d="M 25.011719 31.8125 L 24.960938 31.8125 C 24.128906 31.816406 22.988281 31.648438 22.4375 31.492188 L 21.773438 33.25 C 22.210938 33.40625 23.691406 33.695312 24.988281 33.695312 C 26.28125 33.695312 27.761719 33.402344 28.199219 33.25 L 27.535156 31.492188 C 26.984375 31.652344 25.84375 31.816406 25.011719 31.8125 Z M 25.011719 31.8125 "/>
<path style=" stroke:none;fill-rule:nonzero;fill:rgb(100%,100%,100%);fill-opacity:1;" d="M 30.027344 30.0625 C 29.535156 30.335938 28.433594 30.746094 27.792969 30.9375 L 28.328125 32.390625 C 29.320312 32.125 30.136719 31.816406 30.8125 31.484375 L 29.699219 31.117188 Z M 30.027344 30.0625 "/>
<path style=" stroke:none;fill-rule:nonzero;fill:rgb(100%,100%,100%);fill-opacity:1;" d="M 19.945312 30.0625 L 20.277344 31.117188 L 19.160156 31.484375 C 19.832031 31.816406 20.65625 32.125 21.640625 32.390625 L 22.179688 30.9375 C 21.542969 30.746094 20.441406 30.335938 19.945312 30.0625 Z M 19.945312 30.0625 "/>
<path style=" stroke:none;fill-rule:nonzero;fill:rgb(100%,100%,100%);fill-opacity:1;" d="M 24.984375 3.273438 C 26.019531 3.273438 27.03125 3.515625 27.808594 3.941406 C 27.882812 3.707031 27.980469 3.421875 28.117188 3.125 L 27.820312 3.160156 L 27.511719 3.195312 L 27.382812 2.917969 L 26.988281 2.101562 L 26.269531 2.46875 L 25.992188 2.609375 L 25.769531 2.394531 L 24.988281 1.636719 L 24.210938 2.394531 L 23.988281 2.609375 L 23.707031 2.46875 L 22.984375 2.101562 L 22.597656 2.917969 L 22.464844 3.195312 L 22.152344 3.160156 L 21.859375 3.125 C 21.996094 3.425781 22.09375 3.707031 22.164062 3.941406 C 22.945312 3.515625 23.957031 3.273438 24.984375 3.273438 Z M 24.984375 3.273438 "/>
<path style=" stroke:none;fill-rule:nonzero;fill:rgb(100%,100%,100%);fill-opacity:1;" d="M 40.75 12.707031 C 40.882812 12.753906 41.019531 12.773438 41.15625 12.773438 C 41.738281 12.773438 42.304688 12.402344 42.5 11.980469 C 42.5 11.980469 41.429688 11.914062 40.277344 10.769531 C 39.910156 10.394531 39.523438 10.285156 39.1875 10.285156 C 38.671875 10.285156 38.285156 10.554688 38.285156 10.554688 C 39.675781 11.28125 39.957031 12.445312 40.75 12.707031 Z M 40.75 12.707031 "/>
<path style=" stroke:none;fill-rule:nonzero;fill:rgb(100%,100%,100%);fill-opacity:1;" d="M 8.816406 12.773438 C 8.949219 12.773438 9.085938 12.753906 9.21875 12.707031 C 10.011719 12.445312 10.296875 11.28125 11.6875 10.554688 C 11.6875 10.554688 11.300781 10.285156 10.785156 10.285156 C 10.453125 10.285156 10.0625 10.394531 9.695312 10.769531 C 8.546875 11.914062 7.472656 11.980469 7.472656 11.980469 C 7.664062 12.402344 8.230469 12.773438 8.816406 12.773438 Z M 8.816406 12.773438 "/>
<path style=" stroke:none;fill-rule:nonzero;fill:rgb(100%,100%,100%);fill-opacity:1;" d="M 41.128906 17.445312 C 41.152344 17.449219 41.171875 17.449219 41.199219 17.449219 C 42.65625 17.449219 43.148438 15.914062 43.148438 15.914062 L 43.121094 15.914062 C 42.855469 15.914062 40.6875 15.855469 39.15625 13.945312 C 38.144531 12.6875 37.320312 11.582031 35.6875 11.148438 L 35.527344 11.121094 L 35.492188 10.960938 C 35.445312 10.714844 35.617188 10.488281 36.003906 10.238281 C 38.257812 8.792969 36.730469 6.945312 36.730469 6.945312 C 36.730469 6.945312 36.085938 8.421875 34.644531 8.421875 C 34.613281 8.421875 34.574219 8.421875 34.539062 8.421875 C 34.375 8.414062 34.21875 8.40625 34.058594 8.375 L 33.792969 8.324219 C 33.792969 8.324219 34.203125 7.226562 33.214844 6.222656 C 32.46875 5.460938 31.558594 5.335938 31.035156 5.335938 C 30.769531 5.335938 30.601562 5.367188 30.601562 5.367188 C 31.101562 6.007812 31.460938 7.066406 30.886719 7.71875 C 30.390625 8.277344 29.175781 8.304688 29.175781 9.144531 C 29.175781 9.496094 29.515625 9.910156 30.121094 10.28125 C 31.945312 11.410156 33.753906 12.902344 34.503906 14.90625 C 35.445312 17.402344 34.386719 19.0625 32.875 20.011719 C 32.875 20.011719 33.347656 20.441406 34.035156 20.492188 C 34.175781 20.507812 34.3125 20.511719 34.441406 20.511719 C 35.890625 20.511719 36.640625 19.84375 36.640625 19.84375 C 36.640625 19.84375 36.519531 20.769531 35.761719 21.625 C 35.066406 22.417969 34.148438 22.882812 32.753906 22.902344 C 32.753906 22.902344 32.710938 23.535156 33.328125 24.085938 C 33.722656 24.433594 34.636719 24.546875 34.636719 24.546875 C 34.636719 24.546875 32.925781 24.886719 32.738281 27.363281 C 32.636719 28.707031 32.285156 29.171875 32.285156 29.171875 L 32.316406 29.171875 C 36.285156 29.171875 36.183594 25.835938 36.183594 25.835938 C 36.183594 25.835938 36.460938 26.820312 37.566406 27.082031 C 37.699219 27.113281 37.84375 27.128906 37.980469 27.128906 C 38.335938 27.128906 38.644531 27.046875 38.644531 27.046875 C 38.644531 27.046875 38.066406 25.847656 38.640625 24.167969 C 39.117188 22.777344 39.039062 21.746094 39.039062 21.746094 C 39.039062 21.746094 39.574219 22.539062 40.902344 22.546875 L 40.914062 22.546875 C 42.019531 22.546875 42.5 21.726562 42.5 21.726562 C 39.851562 20.648438 40.113281 17.171875 40.113281 17.171875 C 40.113281 17.171875 40.457031 17.421875 41.128906 17.445312 Z M 40.332031 21.078125 C 39.257812 20.558594 38.574219 19.175781 38.410156 18.679688 C 38.234375 21.417969 36.867188 23.320312 35.273438 25.152344 C 34.445312 26.097656 34.160156 27.023438 34.160156 27.023438 C 34.160156 27.023438 34.316406 25.976562 35.035156 25.125 C 36.519531 23.371094 37.933594 21.191406 38.039062 18.667969 C 38.113281 16.90625 37.648438 15.480469 36.929688 14.300781 C 37.332031 15.527344 37.277344 17.03125 35.90625 18.429688 C 35.90625 18.429688 38.628906 15.226562 34.824219 11.945312 C 33.296875 10.695312 31.632812 9.925781 30.773438 9.378906 C 33.875 10.371094 35.390625 9.277344 35.390625 9.277344 C 34.398438 10.121094 33.117188 10.105469 32.320312 9.984375 C 32.535156 10.089844 32.761719 10.195312 33.003906 10.324219 C 35.617188 11.714844 37.96875 14.007812 38.367188 17.183594 L 38.367188 17.160156 C 38.976562 20.277344 40.332031 21.078125 40.332031 21.078125 Z M 40.332031 21.078125 "/>
<path style=" stroke:none;fill-rule:nonzero;fill:rgb(100%,100%,100%);fill-opacity:1;" d="M 15.335938 24.546875 C 15.335938 24.546875 16.25 24.433594 16.644531 24.085938 C 17.261719 23.535156 17.21875 22.902344 17.21875 22.902344 C 15.820312 22.882812 14.90625 22.417969 14.207031 21.625 C 13.457031 20.769531 13.332031 19.847656 13.332031 19.847656 C 13.332031 19.847656 14.082031 20.515625 15.53125 20.515625 C 15.660156 20.515625 15.796875 20.507812 15.9375 20.496094 C 16.625 20.441406 17.097656 20.011719 17.097656 20.011719 C 15.585938 19.0625 14.527344 17.402344 15.464844 14.90625 C 16.21875 12.90625 18.027344 11.410156 19.851562 10.28125 C 20.457031 9.910156 20.792969 9.5 20.792969 9.144531 C 20.792969 8.304688 19.582031 8.277344 19.085938 7.71875 C 18.511719 7.066406 18.871094 6.003906 19.367188 5.367188 C 19.367188 5.367188 19.203125 5.335938 18.9375 5.335938 C 18.414062 5.335938 17.507812 5.460938 16.761719 6.222656 C 15.769531 7.226562 16.179688 8.324219 16.179688 8.324219 L 15.914062 8.375 C 15.753906 8.40625 15.597656 8.414062 15.433594 8.421875 C 15.398438 8.421875 15.363281 8.421875 15.328125 8.421875 C 13.886719 8.421875 13.246094 6.949219 13.246094 6.949219 C 13.246094 6.949219 11.714844 8.792969 13.96875 10.242188 C 14.355469 10.488281 14.523438 10.71875 14.480469 10.960938 L 14.445312 11.121094 L 14.28125 11.148438 C 12.652344 11.585938 11.824219 12.6875 10.816406 13.945312 C 9.285156 15.851562 7.121094 15.914062 6.851562 15.914062 L 6.820312 15.914062 C 6.820312 15.914062 7.316406 17.449219 8.773438 17.449219 C 8.796875 17.449219 8.816406 17.449219 8.84375 17.445312 C 9.511719 17.421875 9.859375 17.171875 9.859375 17.171875 C 9.859375 17.171875 10.117188 20.648438 7.472656 21.726562 C 7.472656 21.726562 7.953125 22.546875 9.058594 22.546875 L 9.070312 22.546875 C 10.398438 22.539062 10.933594 21.746094 10.933594 21.746094 C 10.933594 21.746094 10.855469 22.777344 11.332031 24.167969 C 11.90625 25.847656 11.328125 27.046875 11.328125 27.046875 C 11.328125 27.046875 11.636719 27.128906 11.992188 27.128906 C 12.132812 27.128906 12.273438 27.113281 12.40625 27.082031 C 13.511719 26.820312 13.789062 25.835938 13.789062 25.835938 C 13.789062 25.835938 13.6875 29.171875 17.65625 29.171875 L 17.683594 29.171875 C 17.683594 29.171875 17.335938 28.707031 17.234375 27.363281 C 17.042969 24.886719 15.335938 24.546875 15.335938 24.546875 Z M 14.695312 25.152344 C 13.101562 23.320312 11.742188 21.417969 11.5625 18.679688 C 11.394531 19.175781 10.71875 20.558594 9.644531 21.078125 C 9.644531 21.078125 10.996094 20.277344 11.601562 17.160156 L 11.601562 17.183594 C 12.003906 14.011719 14.355469 11.714844 16.96875 10.324219 C 17.210938 10.195312 17.4375 10.085938 17.652344 9.984375 C 16.855469 10.105469 15.574219 10.121094 14.582031 9.277344 C 14.582031 9.277344 16.097656 10.371094 19.199219 9.378906 C 18.339844 9.925781 16.671875 10.695312 15.148438 11.945312 C 11.339844 15.226562 14.0625 18.429688 14.0625 18.429688 C 12.695312 17.027344 12.640625 15.527344 13.042969 14.300781 C 12.320312 15.480469 11.859375 16.90625 11.933594 18.667969 C 12.039062 21.191406 13.449219 23.371094 14.933594 25.125 C 15.652344 25.976562 15.8125 27.023438 15.8125 27.023438 C 15.8125 27.023438 15.523438 26.097656 14.695312 25.152344 Z M 14.695312 25.152344 "/>
<path style=" stroke:none;fill-rule:nonzero;fill:rgb(100%,100%,100%);fill-opacity:1;" d="M 22.050781 12.339844 C 22.117188 12.40625 22.179688 12.480469 22.242188 12.554688 C 22.257812 12.574219 22.269531 12.589844 22.285156 12.609375 C 22.339844 12.683594 22.398438 12.761719 22.453125 12.84375 C 22.464844 12.859375 22.476562 12.878906 22.492188 12.898438 C 22.558594 12.996094 22.621094 13.097656 22.683594 13.203125 C 23.253906 14.171875 24.171875 14.75 24.984375 14.753906 C 25.796875 14.75 26.710938 14.171875 27.289062 13.203125 C 27.351562 13.09375 27.414062 12.992188 27.480469 12.894531 C 27.492188 12.878906 27.503906 12.867188 27.511719 12.851562 C 27.566406 12.769531 27.628906 12.6875 27.691406 12.605469 C 27.703125 12.589844 27.714844 12.574219 27.726562 12.5625 C 27.789062 12.484375 27.855469 12.40625 27.921875 12.335938 C 27.933594 12.324219 27.945312 12.316406 27.953125 12.308594 C 28.246094 12.015625 28.59375 11.792969 29.046875 11.667969 L 28.847656 11.550781 L 28.832031 11.550781 L 28.027344 11.09375 L 27.199219 10.628906 L 24.992188 11.808594 L 24.984375 11.804688 L 24.980469 11.808594 L 22.769531 10.628906 L 21.941406 11.089844 L 21.136719 11.550781 L 21.125 11.550781 L 20.921875 11.664062 C 21.378906 11.789062 21.722656 12.007812 22.015625 12.304688 C 22.027344 12.3125 22.039062 12.328125 22.050781 12.339844 Z M 24.089844 12.246094 L 25.960938 12.246094 L 25.960938 12.875 C 25.742188 12.609375 25.3125 12.664062 25.3125 12.664062 L 25.3125 13.570312 C 25.3125 13.570312 25.328125 14.019531 25.488281 14.210938 L 24.5625 14.210938 C 24.722656 14.019531 24.738281 13.570312 24.738281 13.570312 L 24.738281 12.664062 C 24.738281 12.664062 24.3125 12.609375 24.089844 12.875 Z M 24.089844 12.246094 "/>
<path style=" stroke:none;fill-rule:nonzero;fill:rgb(100%,100%,100%);fill-opacity:1;" d="M 24.792969 11.023438 L 24.792969 7.335938 L 22.402344 6.542969 L 23.035156 10.113281 Z M 24.28125 8.242188 L 24.28125 8.832031 L 24.164062 8.78125 C 24.160156 8.777344 23.988281 8.738281 23.691406 8.507812 C 23.203125 8.136719 23.191406 7.792969 23.191406 7.792969 Z M 24.28125 8.242188 "/>
<path style=" stroke:none;fill-rule:nonzero;fill:rgb(100%,100%,100%);fill-opacity:1;" d="M 26.941406 10.113281 L 27.566406 6.542969 L 25.175781 7.335938 L 25.175781 11.023438 Z M 25.691406 8.242188 L 26.777344 7.792969 C 26.777344 7.792969 26.769531 8.136719 26.277344 8.511719 C 25.984375 8.742188 25.8125 8.777344 25.804688 8.78125 L 25.691406 8.835938 Z M 25.691406 8.242188 "/>
<path style=" stroke:none;fill-rule:nonzero;fill:rgb(100%,100%,100%);fill-opacity:1;" d="M 21.410156 19.570312 C 21.644531 19.652344 21.925781 19.667969 22.070312 19.667969 C 22.078125 19.652344 22.085938 19.628906 22.089844 19.601562 C 22.105469 19.5625 22.117188 19.519531 22.125 19.472656 C 22.164062 19.269531 22.179688 19.039062 22.183594 18.890625 C 22.085938 18.828125 21.949219 18.722656 21.871094 18.5625 C 21.78125 18.378906 21.65625 18.296875 21.46875 18.296875 C 21.226562 18.296875 20.96875 18.4375 20.859375 18.503906 C 20.773438 19.011719 21.152344 19.476562 21.410156 19.570312 Z M 21.410156 19.570312 "/>
<path style=" stroke:none;fill-rule:nonzero;fill:rgb(100%,100%,100%);fill-opacity:1;" d="M 26.703125 17.613281 C 26.257812 18.085938 25.390625 18.910156 25.34375 18.953125 L 25.292969 19.003906 L 22.546875 18.964844 C 22.546875 19.230469 22.5 19.457031 22.457031 19.625 C 22.449219 19.652344 22.441406 19.679688 22.433594 19.710938 L 25.703125 20.285156 C 26.042969 20.050781 26.980469 19.382812 27.34375 19.121094 C 27.078125 18.742188 27.054688 18.292969 27.113281 17.976562 C 26.941406 17.867188 26.808594 17.742188 26.703125 17.613281 Z M 26.703125 17.613281 "/>
<path style=" stroke:none;fill-rule:nonzero;fill:rgb(100%,100%,100%);fill-opacity:1;" d="M 27.074219 14.371094 C 26.441406 14.988281 25.832031 15.214844 25.292969 15.265625 C 25.195312 15.277344 25.09375 15.285156 24.992188 15.285156 L 24.980469 15.285156 C 24.878906 15.285156 24.777344 15.277344 24.679688 15.265625 C 24.585938 15.257812 24.484375 15.242188 24.386719 15.222656 C 24.351562 15.359375 24.304688 15.652344 24.433594 15.925781 C 24.546875 16.175781 24.78125 16.359375 25.121094 16.480469 L 25.234375 16.523438 L 25.238281 16.644531 C 25.238281 16.683594 25.261719 17.464844 26.136719 17.683594 C 26.277344 17.539062 26.40625 17.410156 26.503906 17.300781 C 26.324219 16.890625 26.417969 16.472656 26.675781 16.265625 C 26.664062 16.308594 26.550781 17.339844 27.390625 17.71875 L 27.53125 17.785156 L 27.488281 17.929688 C 27.476562 17.972656 27.195312 18.96875 28.210938 19.339844 L 28.390625 19.40625 L 28.3125 19.578125 C 28.292969 19.613281 27.894531 20.519531 28.835938 21.03125 L 30.875 21.03125 L 30.875 19.441406 C 30.148438 19.355469 29.84375 18.785156 29.761719 18.378906 C 29.425781 18.324219 29.164062 18.179688 28.988281 17.945312 C 28.558594 17.394531 28.925781 16.886719 28.929688 16.859375 C 28.929688 16.863281 28.929688 17.402344 29.269531 17.738281 C 29.4375 17.898438 29.636719 18.019531 29.9375 18.046875 L 30.085938 18.0625 L 30.101562 18.210938 C 30.105469 18.242188 30.1875 18.972656 30.875 19.085938 L 30.875 15.839844 C 30.875 15.339844 31.023438 14.832031 31.203125 14.367188 L 27.074219 14.367188 Z M 27.074219 14.371094 "/>
<path style=" stroke:none;fill-rule:nonzero;fill:rgb(100%,100%,100%);fill-opacity:1;" d="M 21.585938 15.855469 L 21.53125 17.925781 L 21.769531 17.960938 L 22.355469 15.976562 L 22.058594 15.367188 Z M 21.585938 15.855469 "/>
<path style=" stroke:none;fill-rule:nonzero;fill:rgb(100%,100%,100%);fill-opacity:1;" d="M 28.039062 25.335938 C 28.058594 25.335938 28.078125 25.339844 28.097656 25.34375 C 28.460938 25.445312 28.554688 26.734375 29.191406 26.847656 C 29.253906 26.863281 29.3125 26.863281 29.363281 26.863281 C 29.546875 26.863281 29.65625 26.789062 29.777344 26.648438 C 29.777344 26.648438 29.453125 26.15625 29.214844 25.820312 C 28.894531 25.382812 28.648438 24.855469 28.050781 24.855469 C 28.039062 24.855469 28.019531 24.855469 28.007812 24.855469 C 27.808594 24.867188 27.691406 24.960938 27.691406 24.960938 C 27.449219 24.8125 27.226562 24.761719 27.019531 24.761719 C 26.648438 24.761719 26.359375 24.925781 26.214844 24.925781 L 26.207031 24.925781 L 24.878906 24.800781 C 24.671875 24.78125 24.507812 24.574219 24.449219 24.496094 C 24.433594 24.472656 24.425781 24.460938 24.425781 24.460938 C 24.425781 24.425781 24.425781 24.386719 24.425781 24.355469 C 24.378906 23.289062 23.539062 22.835938 23.238281 22.828125 C 23.238281 22.828125 23.277344 22.625 23.195312 22.546875 L 22.902344 22.894531 L 21.941406 22.421875 L 22.625 23.207031 L 22.042969 23.847656 C 21.972656 23.921875 21.980469 24.019531 22.011719 24.058594 L 22.261719 24.277344 L 22.578125 24.089844 C 22.59375 24.078125 22.625 24.074219 22.660156 24.074219 C 22.746094 24.074219 22.878906 24.09375 22.996094 24.09375 C 23.128906 24.09375 23.238281 24.066406 23.253906 23.949219 C 23.214844 24.34375 22.839844 25.03125 23.085938 25.570312 L 23.265625 25.976562 L 22.09375 25.808594 L 21.542969 26.71875 C 21.375 27.023438 21.347656 27.351562 21.511719 27.527344 L 21.714844 27.78125 C 21.714844 27.78125 22.003906 27.480469 22.070312 27.285156 L 21.976562 27.183594 C 21.898438 27.097656 21.902344 27.023438 21.949219 26.933594 L 22.292969 26.371094 L 23.679688 26.691406 L 23.753906 26.570312 C 23.847656 26.414062 23.980469 26.367188 24.128906 26.367188 C 24.191406 26.367188 24.253906 26.375 24.320312 26.386719 C 24.574219 26.4375 25 26.503906 25.421875 26.503906 C 25.886719 26.503906 26.347656 26.421875 26.59375 26.152344 C 27.09375 26.882812 28.113281 27 28.03125 27.367188 L 27.765625 28.621094 C 27.941406 28.613281 28.113281 28.601562 28.273438 28.578125 L 28.527344 27.277344 C 28.558594 27.136719 28.585938 26.945312 28.585938 26.945312 C 28.484375 26.847656 28.25 26.640625 28.113281 26.390625 C 27.933594 26.050781 28.03125 25.875 27.863281 25.433594 C 27.871094 25.4375 27.921875 25.335938 28.039062 25.335938 Z M 22.855469 23.507812 C 22.785156 23.507812 22.738281 23.449219 22.738281 23.382812 C 22.746094 23.320312 22.800781 23.265625 22.867188 23.273438 C 22.933594 23.277344 22.984375 23.335938 22.980469 23.398438 C 22.976562 23.460938 22.917969 23.511719 22.855469 23.507812 Z M 22.855469 23.507812 "/>
<path style=" stroke:none;fill-rule:nonzero;fill:rgb(100%,100%,100%);fill-opacity:1;" d="M 20.960938 26.519531 C 20.960938 26.519531 21.421875 26.332031 21.460938 26.203125 L 21.402344 26.050781 C 21.359375 25.953125 21.363281 25.847656 21.445312 25.789062 L 21.941406 25.453125 L 22.773438 25.609375 C 22.773438 25.609375 22.621094 25.425781 22.636719 25.179688 L 21.847656 25.011719 L 21.101562 25.460938 C 20.78125 25.695312 20.757812 26.078125 20.863281 26.304688 Z M 20.960938 26.519531 "/>
<path style=" stroke:none;fill-rule:nonzero;fill:rgb(100%,100%,100%);fill-opacity:1;" d="M 26.820312 28.636719 C 26.96875 28.632812 27.132812 28.628906 27.3125 28.628906 C 27.3125 28.628906 27.738281 27.40625 27.761719 27.367188 C 27.523438 27.265625 27.027344 27.003906 26.835938 26.886719 C 26.960938 27.074219 27.269531 27.285156 27.207031 27.449219 Z M 26.820312 28.636719 "/>
<path style=" stroke:none;fill-rule:nonzero;fill:rgb(100%,86.666667%,17.647059%);fill-opacity:1;" d="M 30.878906 21.386719 L 19.09375 21.386719 L 19.09375 25.734375 C 19.09375 27.511719 20.40625 28.625 22.339844 28.625 C 23.960938 28.625 24.386719 28.6875 24.988281 29.273438 C 25.402344 28.867188 25.746094 28.71875 26.449219 28.660156 L 26.464844 28.59375 L 26.835938 27.464844 C 26.816406 27.441406 26.207031 26.765625 26.207031 26.765625 C 25.96875 26.84375 25.765625 26.855469 25.425781 26.855469 C 25.078125 26.855469 24.683594 26.816406 24.257812 26.738281 C 24.214844 26.726562 24.171875 26.726562 24.132812 26.726562 C 24.082031 26.726562 24.078125 26.730469 24.0625 26.753906 L 23.988281 26.875 L 23.855469 27.09375 L 23.601562 27.035156 L 22.46875 26.773438 L 22.316406 27.023438 L 22.339844 27.050781 L 22.476562 27.199219 L 22.414062 27.394531 C 22.332031 27.648438 22.0625 27.941406 21.980469 28.023438 L 21.699219 28.320312 L 21.441406 28.003906 L 21.246094 27.765625 C 21.042969 27.542969 20.996094 27.199219 21.109375 26.839844 C 21.109375 26.84375 21.105469 26.847656 21.097656 26.847656 L 20.78125 26.976562 L 20.636719 26.667969 L 20.535156 26.453125 C 20.359375 26.070312 20.425781 25.511719 20.894531 25.175781 L 21.804688 24.671875 L 22.667969 24.839844 C 22.691406 24.757812 22.722656 24.464844 22.746094 24.390625 C 22.730469 24.390625 22.714844 24.386719 22.699219 24.386719 L 22.199219 24.566406 L 21.71875 24.242188 C 21.71875 24.242188 21.527344 24.0625 21.699219 23.886719 L 22.164062 23.191406 L 20.984375 21.738281 L 22.800781 22.46875 L 23.164062 22.035156 L 23.445312 22.296875 C 23.523438 22.371094 23.566406 22.460938 23.589844 22.554688 C 24.089844 22.746094 24.984375 23.308594 25.066406 24.226562 L 24.785156 24.335938 L 24.785156 24.34375 C 24.847656 24.417969 24.902344 24.449219 24.917969 24.449219 L 26.214844 24.578125 C 26.246094 24.570312 26.289062 24.554688 26.332031 24.542969 C 26.492188 24.488281 26.734375 24.410156 27.023438 24.410156 C 27.257812 24.410156 27.480469 24.464844 27.699219 24.5625 C 27.777344 24.535156 27.878906 24.511719 27.988281 24.503906 L 28.050781 24.503906 C 28.746094 24.503906 29.089844 25.011719 29.367188 25.417969 C 29.414062 25.488281 29.460938 25.554688 29.507812 25.621094 C 29.75 25.957031 30.066406 26.445312 30.078125 26.464844 L 30.222656 26.683594 L 30.046875 26.886719 C 29.910156 27.039062 29.707031 27.21875 29.359375 27.21875 C 29.289062 27.21875 29.210938 27.210938 29.125 27.195312 C 29.050781 27.179688 28.984375 27.160156 28.921875 27.132812 C 28.910156 27.199219 28.894531 27.28125 28.882812 27.347656 L 28.65625 28.511719 C 30.015625 28.183594 30.878906 27.175781 30.878906 25.738281 Z M 30.878906 21.386719 "/>
<path style=" stroke:none;fill-rule:nonzero;fill:rgb(100%,86.666667%,17.647059%);fill-opacity:1;" d="M 19.09375 21.035156 L 28.257812 21.035156 C 27.800781 20.574219 27.808594 19.984375 27.925781 19.601562 C 27.792969 19.539062 27.679688 19.464844 27.582031 19.382812 C 27.226562 19.644531 26.132812 20.425781 25.847656 20.621094 L 25.785156 20.660156 L 22.1875 20.023438 L 22.117188 20.023438 C 22.03125 20.023438 21.902344 20.019531 21.765625 20.003906 C 21.726562 20.160156 21.585938 20.269531 21.425781 20.269531 C 21.410156 20.269531 21.386719 20.269531 21.367188 20.265625 C 21.273438 20.25 21.191406 20.203125 21.136719 20.125 C 21.082031 20.050781 21.058594 19.960938 21.074219 19.867188 L 21.089844 19.789062 C 20.71875 19.535156 20.375 18.960938 20.527344 18.355469 L 20.542969 18.292969 L 20.59375 18.257812 C 20.601562 18.25 20.664062 18.210938 20.757812 18.15625 L 20.496094 18.117188 C 20.398438 18.101562 20.332031 18.011719 20.347656 17.917969 C 20.363281 17.820312 20.453125 17.753906 20.550781 17.769531 L 21.171875 17.867188 L 21.230469 15.714844 L 22.15625 14.753906 L 22.734375 15.949219 L 22.125 18.019531 L 22.675781 18.101562 C 22.769531 18.117188 22.835938 18.207031 22.824219 18.304688 C 22.808594 18.390625 22.734375 18.449219 22.644531 18.449219 C 22.636719 18.449219 22.625 18.449219 22.617188 18.449219 L 22.171875 18.375 C 22.175781 18.390625 22.183594 18.398438 22.191406 18.410156 C 22.238281 18.507812 22.34375 18.578125 22.40625 18.605469 L 25.148438 18.648438 C 25.265625 18.539062 25.554688 18.261719 25.847656 17.96875 C 25.175781 17.71875 24.929688 17.144531 24.886719 16.765625 C 24.511719 16.609375 24.25 16.375 24.105469 16.066406 C 23.929688 15.6875 23.992188 15.304688 24.039062 15.121094 C 23.675781 14.988281 23.289062 14.75 22.898438 14.367188 L 18.765625 14.367188 C 18.945312 14.835938 19.09375 15.339844 19.09375 15.84375 Z M 19.09375 21.035156 "/>
<path style=" stroke:none;fill-rule:nonzero;fill:rgb(0%,0%,0%);fill-opacity:1;" d="M 22.867188 23.273438 C 22.800781 23.265625 22.746094 23.320312 22.742188 23.382812 C 22.734375 23.449219 22.785156 23.507812 22.855469 23.507812 C 22.921875 23.515625 22.976562 23.464844 22.984375 23.398438 C 22.984375 23.335938 22.9375 23.273438 22.867188 23.273438 Z M 22.867188 23.273438 "/>
<path style=" stroke:none;fill-rule:nonzero;fill:rgb(0%,0%,0%);fill-opacity:1;" d="M 30.863281 31.160156 L 30.183594 30.90625 L 30.371094 30.214844 L 30.578125 29.464844 C 30.578125 29.464844 29.375 30.105469 27.679688 30.585938 C 27.199219 30.722656 26.832031 30.785156 26.832031 30.785156 L 26.832031 31.292969 C 26.832031 31.292969 25.925781 31.449219 25.011719 31.449219 L 24.957031 31.449219 C 24.042969 31.449219 23.136719 31.292969 23.136719 31.292969 L 23.136719 30.785156 C 23.136719 30.785156 22.769531 30.722656 22.289062 30.585938 C 20.59375 30.105469 19.394531 29.464844 19.394531 29.464844 L 19.597656 30.214844 L 19.789062 30.90625 L 19.109375 31.160156 L 18.351562 31.4375 C 19.21875 31.847656 20.417969 32.445312 21.515625 32.738281 L 21.257812 33.433594 C 21.257812 33.433594 22.648438 34.054688 24.96875 34.058594 L 24.96875 34.0625 L 25.003906 34.0625 L 25.003906 34.058594 C 27.324219 34.054688 28.714844 33.433594 28.714844 33.433594 L 28.453125 32.738281 C 29.550781 32.445312 30.753906 31.847656 31.617188 31.4375 Z M 19.160156 31.484375 L 20.277344 31.117188 L 19.945312 30.0625 C 20.4375 30.335938 21.542969 30.746094 22.179688 30.9375 L 21.640625 32.390625 C 20.65625 32.125 19.832031 31.8125 19.160156 31.484375 Z M 24.988281 33.695312 C 23.691406 33.695312 22.207031 33.402344 21.773438 33.25 L 22.4375 31.492188 C 22.984375 31.648438 24.128906 31.816406 24.960938 31.8125 L 25.011719 31.8125 C 25.84375 31.816406 26.984375 31.648438 27.535156 31.492188 L 28.199219 33.25 C 27.761719 33.402344 26.28125 33.695312 24.988281 33.695312 Z M 28.328125 32.390625 L 27.792969 30.9375 C 28.433594 30.746094 29.535156 30.335938 30.027344 30.0625 L 29.699219 31.117188 L 30.8125 31.484375 C 30.136719 31.8125 29.320312 32.125 28.328125 32.390625 Z M 28.328125 32.390625 "/>
<path style=" stroke:none;fill-rule:nonzero;fill:rgb(0%,0%,0%);fill-opacity:1;" d="M 24.984375 3.699219 C 26.367188 3.699219 27.472656 4.148438 28.082031 4.628906 C 28.082031 4.628906 28.265625 3.558594 28.882812 2.613281 L 27.769531 2.734375 L 27.1875 1.523438 L 26.070312 2.085938 L 24.984375 1.035156 L 23.902344 2.085938 L 22.785156 1.523438 L 22.203125 2.734375 L 21.089844 2.613281 C 21.710938 3.558594 21.890625 4.628906 21.890625 4.628906 C 22.503906 4.148438 23.605469 3.699219 24.984375 3.699219 Z M 22.152344 3.160156 L 22.460938 3.195312 L 22.59375 2.917969 L 22.984375 2.101562 L 23.707031 2.46875 L 23.984375 2.609375 L 24.207031 2.390625 L 24.988281 1.632812 L 25.765625 2.390625 L 25.988281 2.609375 L 26.269531 2.46875 L 26.988281 2.101562 L 27.378906 2.917969 L 27.511719 3.195312 L 27.820312 3.160156 L 28.113281 3.125 C 27.980469 3.425781 27.878906 3.707031 27.808594 3.941406 C 27.03125 3.515625 26.015625 3.273438 24.984375 3.273438 C 23.957031 3.273438 22.945312 3.515625 22.164062 3.941406 C 22.089844 3.707031 21.992188 3.421875 21.855469 3.125 Z M 22.152344 3.160156 "/>
<path style=" stroke:none;fill-rule:nonzero;fill:rgb(0%,0%,0%);fill-opacity:1;" d="M 41.195312 17.914062 C 42.984375 17.914062 43.582031 16.132812 43.605469 16.054688 L 43.804688 15.425781 L 43.136719 15.449219 L 43.132812 15.449219 C 42.894531 15.449219 40.925781 15.398438 39.527344 13.652344 L 39.394531 13.492188 C 38.480469 12.351562 37.613281 11.269531 36.066406 10.773438 C 36.109375 10.734375 36.175781 10.6875 36.261719 10.628906 C 37.082031 10.101562 37.5625 9.457031 37.683594 8.707031 C 37.859375 7.582031 37.128906 6.6875 37.09375 6.652344 L 36.597656 6.046875 L 36.285156 6.761719 C 36.265625 6.808594 35.742188 7.953125 34.644531 7.953125 L 34.5625 7.953125 C 34.484375 7.949219 34.414062 7.945312 34.34375 7.941406 C 34.382812 7.429688 34.285156 6.636719 33.554688 5.894531 C 32.675781 5.003906 31.597656 4.867188 31.035156 4.867188 C 30.734375 4.867188 30.53125 4.90625 30.511719 4.90625 L 29.757812 5.054688 L 30.222656 5.652344 C 30.585938 6.113281 30.917969 6.964844 30.527344 7.414062 C 30.402344 7.554688 30.144531 7.667969 29.898438 7.785156 C 29.390625 8.011719 28.699219 8.332031 28.699219 9.140625 C 28.699219 9.664062 29.113281 10.214844 29.867188 10.679688 C 32.09375 12.054688 33.464844 13.484375 34.058594 15.066406 C 34.972656 17.5 33.777344 18.886719 32.617188 19.617188 L 32.09375 19.945312 L 32.550781 20.359375 C 32.613281 20.410156 33.171875 20.894531 33.996094 20.964844 C 34.152344 20.972656 34.300781 20.980469 34.441406 20.980469 C 34.96875 20.980469 35.421875 20.898438 35.785156 20.792969 C 35.683594 20.964844 35.5625 21.140625 35.40625 21.320312 C 34.742188 22.074219 33.925781 22.417969 32.75 22.433594 L 32.3125 22.441406 L 32.277344 22.871094 C 32.273438 22.957031 32.242188 23.753906 33.011719 24.433594 C 33.128906 24.539062 33.269531 24.625 33.417969 24.695312 C 32.898438 25.15625 32.367188 25.957031 32.265625 27.332031 C 32.179688 28.480469 31.898438 28.902344 31.894531 28.90625 L 31.414062 29.628906 L 32.285156 29.640625 C 33.726562 29.640625 34.832031 29.25 35.59375 28.480469 C 36.046875 28.023438 36.304688 27.503906 36.457031 27.046875 C 36.710938 27.257812 37.035156 27.441406 37.457031 27.539062 C 37.617188 27.574219 37.792969 27.597656 37.980469 27.597656 C 38.386719 27.597656 38.726562 27.511719 38.765625 27.503906 L 39.324219 27.355469 L 39.078125 26.847656 C 39.058594 26.804688 38.59375 25.78125 39.09375 24.324219 C 39.308594 23.691406 39.417969 23.125 39.472656 22.6875 C 39.824219 22.863281 40.292969 23.015625 40.902344 23.015625 C 42.28125 23.015625 42.886719 22.003906 42.914062 21.960938 L 43.1875 21.5 L 42.683594 21.296875 C 41.039062 20.625 40.675781 18.828125 40.605469 17.855469 C 40.753906 17.882812 40.921875 17.910156 41.113281 17.914062 Z M 42.5 21.726562 C 42.5 21.726562 42.019531 22.546875 40.914062 22.546875 L 40.902344 22.546875 C 39.574219 22.539062 39.039062 21.746094 39.039062 21.746094 C 39.039062 21.746094 39.117188 22.777344 38.640625 24.167969 C 38.066406 25.847656 38.644531 27.046875 38.644531 27.046875 C 38.644531 27.046875 38.335938 27.128906 37.976562 27.128906 C 37.839844 27.128906 37.699219 27.113281 37.566406 27.082031 C 36.457031 26.820312 36.183594 25.832031 36.183594 25.832031 C 36.183594 25.832031 36.285156 29.171875 32.316406 29.171875 L 32.285156 29.171875 C 32.285156 29.171875 32.632812 28.707031 32.738281 27.363281 C 32.925781 24.886719 34.636719 24.546875 34.636719 24.546875 C 34.636719 24.546875 33.726562 24.433594 33.328125 24.085938 C 32.710938 23.535156 32.753906 22.902344 32.753906 22.902344 C 34.152344 22.882812 35.066406 22.417969 35.761719 21.625 C 36.515625 20.769531 36.640625 19.84375 36.640625 19.84375 C 36.640625 19.84375 35.890625 20.511719 34.4375 20.511719 C 34.3125 20.511719 34.175781 20.507812 34.035156 20.492188 C 33.347656 20.441406 32.875 20.011719 32.875 20.011719 C 34.382812 19.0625 35.445312 17.402344 34.503906 14.902344 C 33.75 12.902344 31.941406 11.40625 30.121094 10.28125 C 29.515625 9.910156 29.175781 9.496094 29.175781 9.140625 C 29.175781 8.304688 30.390625 8.277344 30.886719 7.714844 C 31.460938 7.0625 31.101562 6.003906 30.601562 5.367188 C 30.601562 5.367188 30.769531 5.332031 31.035156 5.332031 C 31.558594 5.332031 32.46875 5.460938 33.214844 6.21875 C 34.203125 7.226562 33.792969 8.320312 33.792969 8.320312 L 34.058594 8.371094 C 34.21875 8.40625 34.375 8.410156 34.539062 8.417969 C 34.574219 8.417969 34.609375 8.417969 34.644531 8.417969 C 36.085938 8.417969 36.730469 6.945312 36.730469 6.945312 C 36.730469 6.945312 38.257812 8.789062 36.007812 10.234375 C 35.617188 10.484375 35.449219 10.710938 35.492188 10.957031 L 35.527344 11.117188 L 35.6875 11.144531 C 37.320312 11.578125 38.148438 12.683594 39.15625 13.941406 C 40.6875 15.851562 42.855469 15.914062 43.125 15.914062 L 43.152344 15.914062 C 43.152344 15.914062 42.65625 17.445312 41.199219 17.445312 C 41.175781 17.445312 41.15625 17.445312 41.128906 17.441406 C 40.460938 17.417969 40.117188 17.167969 40.117188 17.167969 C 40.117188 17.167969 39.851562 20.648438 42.5 21.726562 Z M 42.5 21.726562 "/>
<path style=" stroke:none;fill-rule:nonzero;fill:rgb(0%,0%,0%);fill-opacity:1;" d="M 38.058594 10.96875 C 38.722656 11.316406 39.113281 11.78125 39.453125 12.195312 C 39.785156 12.601562 40.105469 12.988281 40.601562 13.152344 C 40.777344 13.210938 40.964844 13.238281 41.15625 13.238281 C 41.902344 13.238281 42.648438 12.792969 42.933594 12.171875 L 43.21875 11.550781 L 42.527344 11.511719 C 42.496094 11.507812 41.605469 11.429688 40.617188 10.4375 C 40.210938 10.03125 39.71875 9.816406 39.1875 9.816406 C 38.539062 9.816406 38.058594 10.132812 38.007812 10.167969 L 37.371094 10.605469 Z M 39.1875 10.285156 C 39.523438 10.285156 39.910156 10.394531 40.277344 10.769531 C 41.429688 11.914062 42.5 11.980469 42.5 11.980469 C 42.304688 12.402344 41.738281 12.773438 41.15625 12.773438 C 41.019531 12.773438 40.886719 12.753906 40.75 12.707031 C 39.957031 12.445312 39.675781 11.28125 38.28125 10.554688 C 38.28125 10.554688 38.671875 10.285156 39.1875 10.285156 Z M 39.1875 10.285156 "/>
<path style=" stroke:none;fill-rule:nonzero;fill:rgb(0%,0%,0%);fill-opacity:1;" d="M 38.371094 17.160156 L 38.371094 17.183594 C 37.96875 14.007812 35.617188 11.71875 33.003906 10.320312 C 32.761719 10.195312 32.539062 10.085938 32.320312 9.984375 C 33.117188 10.105469 34.398438 10.121094 35.390625 9.277344 C 35.390625 9.277344 33.875 10.371094 30.773438 9.378906 C 31.632812 9.925781 33.300781 10.695312 34.824219 11.945312 C 38.628906 15.226562 35.90625 18.429688 35.90625 18.429688 C 37.273438 17.027344 37.332031 15.527344 36.929688 14.300781 C 37.648438 15.476562 38.109375 16.90625 38.039062 18.667969 C 37.933594 21.1875 36.519531 23.371094 35.03125 25.125 C 34.316406 25.976562 34.15625 27.019531 34.15625 27.019531 C 34.15625 27.019531 34.445312 26.097656 35.273438 25.148438 C 36.867188 23.320312 38.230469 21.417969 38.40625 18.675781 C 38.574219 19.171875 39.25 20.558594 40.328125 21.078125 C 40.332031 21.078125 38.976562 20.277344 38.371094 17.160156 Z M 38.371094 17.160156 "/>
<path style=" stroke:none;fill-rule:nonzero;fill:rgb(0%,0%,0%);fill-opacity:1;" d="M 18.074219 28.90625 C 18.074219 28.902344 17.796875 28.476562 17.707031 27.332031 C 17.605469 25.957031 17.074219 25.15625 16.554688 24.695312 C 16.703125 24.625 16.84375 24.539062 16.960938 24.433594 C 17.730469 23.753906 17.695312 22.957031 17.691406 22.871094 L 17.664062 22.441406 L 17.222656 22.433594 C 16.050781 22.414062 15.230469 22.070312 14.566406 21.316406 C 14.414062 21.140625 14.289062 20.964844 14.1875 20.789062 C 14.554688 20.898438 15 20.980469 15.53125 20.980469 C 15.671875 20.980469 15.820312 20.972656 15.976562 20.960938 C 16.800781 20.890625 17.359375 20.410156 17.421875 20.355469 L 17.878906 19.945312 L 17.355469 19.617188 C 16.191406 18.882812 15 17.496094 15.914062 15.066406 C 16.507812 13.484375 17.878906 12.050781 20.105469 10.679688 C 20.859375 10.210938 21.269531 9.664062 21.269531 9.140625 C 21.269531 8.328125 20.582031 8.011719 20.074219 7.78125 C 19.828125 7.667969 19.570312 7.550781 19.445312 7.410156 C 19.054688 6.964844 19.382812 6.113281 19.746094 5.652344 L 20.214844 5.050781 L 19.457031 4.90625 C 19.4375 4.902344 19.238281 4.867188 18.9375 4.867188 C 18.371094 4.867188 17.296875 5 16.417969 5.894531 C 15.683594 6.636719 15.585938 7.429688 15.625 7.9375 C 15.554688 7.945312 15.480469 7.949219 15.40625 7.953125 L 15.328125 7.953125 C 14.226562 7.953125 13.703125 6.804688 13.683594 6.761719 L 13.371094 6.046875 L 12.871094 6.648438 C 12.839844 6.683594 12.109375 7.582031 12.285156 8.707031 C 12.40625 9.453125 12.882812 10.097656 13.703125 10.628906 C 13.792969 10.683594 13.855469 10.734375 13.902344 10.773438 C 12.355469 11.269531 11.488281 12.351562 10.574219 13.492188 L 10.445312 13.652344 C 9.046875 15.398438 7.070312 15.449219 6.835938 15.449219 L 6.160156 15.425781 L 6.367188 16.054688 C 6.390625 16.132812 6.984375 17.914062 8.773438 17.914062 L 8.859375 17.914062 C 9.050781 17.90625 9.21875 17.882812 9.371094 17.851562 C 9.296875 18.824219 8.933594 20.621094 7.289062 21.292969 L 6.785156 21.496094 L 7.058594 21.960938 C 7.085938 22.003906 7.695312 23.011719 9.074219 23.011719 C 9.679688 23.011719 10.148438 22.863281 10.5 22.683594 C 10.554688 23.125 10.664062 23.6875 10.878906 24.320312 C 11.378906 25.78125 10.914062 26.804688 10.894531 26.84375 L 10.648438 27.355469 L 11.207031 27.5 C 11.246094 27.507812 11.585938 27.59375 11.992188 27.59375 C 12.183594 27.59375 12.359375 27.574219 12.515625 27.535156 C 12.941406 27.4375 13.265625 27.253906 13.515625 27.046875 C 13.664062 27.503906 13.925781 28.019531 14.375 28.476562 C 15.144531 29.25 16.246094 29.640625 17.6875 29.640625 L 18.558594 29.628906 Z M 17.652344 29.171875 C 13.683594 29.171875 13.785156 25.835938 13.785156 25.835938 C 13.785156 25.835938 13.511719 26.820312 12.402344 27.082031 C 12.269531 27.113281 12.128906 27.128906 11.992188 27.128906 C 11.636719 27.128906 11.328125 27.046875 11.328125 27.046875 C 11.328125 27.046875 11.902344 25.847656 11.328125 24.167969 C 10.855469 22.777344 10.929688 21.746094 10.929688 21.746094 C 10.929688 21.746094 10.398438 22.539062 9.070312 22.546875 L 9.058594 22.546875 C 7.953125 22.546875 7.472656 21.726562 7.472656 21.726562 C 10.117188 20.648438 9.855469 17.171875 9.855469 17.171875 C 9.855469 17.171875 9.511719 17.421875 8.84375 17.445312 C 8.816406 17.449219 8.796875 17.449219 8.773438 17.449219 C 7.3125 17.449219 6.820312 15.914062 6.820312 15.914062 L 6.847656 15.914062 C 7.117188 15.914062 9.285156 15.855469 10.816406 13.945312 C 11.824219 12.6875 12.652344 11.585938 14.28125 11.148438 L 14.445312 11.121094 L 14.480469 10.960938 C 14.523438 10.714844 14.355469 10.488281 13.96875 10.238281 C 11.714844 8.792969 13.246094 6.945312 13.246094 6.945312 C 13.246094 6.945312 13.886719 8.421875 15.328125 8.421875 C 15.363281 8.421875 15.398438 8.417969 15.433594 8.417969 C 15.597656 8.410156 15.757812 8.40625 15.914062 8.371094 L 16.179688 8.320312 C 16.179688 8.320312 15.769531 7.226562 16.761719 6.21875 C 17.507812 5.460938 18.414062 5.332031 18.9375 5.332031 C 19.203125 5.332031 19.367188 5.367188 19.367188 5.367188 C 18.871094 6.003906 18.511719 7.0625 19.085938 7.714844 C 19.582031 8.277344 20.792969 8.304688 20.792969 9.140625 C 20.792969 9.496094 20.457031 9.910156 19.847656 10.28125 C 18.027344 11.40625 16.21875 12.902344 15.464844 14.902344 C 14.527344 17.402344 15.585938 19.058594 17.097656 20.011719 C 17.097656 20.011719 16.625 20.441406 15.9375 20.492188 C 15.796875 20.507812 15.660156 20.511719 15.53125 20.511719 C 14.082031 20.511719 13.332031 19.84375 13.332031 19.84375 C 13.332031 19.84375 13.453125 20.769531 14.207031 21.625 C 14.90625 22.417969 15.820312 22.882812 17.21875 22.902344 C 17.21875 22.902344 17.261719 23.535156 16.644531 24.085938 C 16.246094 24.433594 15.335938 24.546875 15.335938 24.546875 C 15.335938 24.546875 17.046875 24.886719 17.234375 27.363281 C 17.335938 28.707031 17.683594 29.171875 17.683594 29.171875 Z M 17.652344 29.171875 "/>
<path style=" stroke:none;fill-rule:nonzero;fill:rgb(0%,0%,0%);fill-opacity:1;" d="M 8.816406 13.238281 C 9.007812 13.238281 9.195312 13.210938 9.371094 13.152344 C 9.871094 12.992188 10.1875 12.601562 10.519531 12.199219 C 10.863281 11.785156 11.246094 11.316406 11.914062 10.96875 L 12.601562 10.609375 L 11.964844 10.167969 C 11.910156 10.136719 11.429688 9.820312 10.785156 9.820312 C 10.253906 9.820312 9.761719 10.03125 9.355469 10.441406 C 8.363281 11.429688 7.476562 11.511719 7.445312 11.511719 L 6.753906 11.550781 L 7.039062 12.175781 C 7.324219 12.792969 8.070312 13.238281 8.816406 13.238281 Z M 9.695312 10.769531 C 10.0625 10.398438 10.449219 10.289062 10.785156 10.289062 C 11.300781 10.289062 11.6875 10.554688 11.6875 10.554688 C 10.296875 11.28125 10.011719 12.445312 9.21875 12.710938 C 9.085938 12.753906 8.949219 12.773438 8.816406 12.773438 C 8.230469 12.773438 7.667969 12.40625 7.472656 11.980469 C 7.472656 11.980469 8.542969 11.914062 9.695312 10.769531 Z M 9.695312 10.769531 "/>
<path style=" stroke:none;fill-rule:nonzero;fill:rgb(0%,0%,0%);fill-opacity:1;" d="M 11.933594 18.667969 C 11.859375 16.90625 12.320312 15.480469 13.042969 14.300781 C 12.640625 15.527344 12.695312 17.03125 14.0625 18.429688 C 14.0625 18.429688 11.339844 15.226562 15.148438 11.945312 C 16.671875 10.695312 18.339844 9.925781 19.195312 9.378906 C 16.097656 10.371094 14.582031 9.277344 14.582031 9.277344 C 15.570312 10.121094 16.855469 10.105469 17.652344 9.984375 C 17.433594 10.085938 17.210938 10.195312 16.96875 10.320312 C 14.351562 11.71875 12.003906 14.007812 11.601562 17.183594 L 11.601562 17.160156 C 10.992188 20.277344 9.640625 21.078125 9.640625 21.078125 C 10.714844 20.554688 11.394531 19.175781 11.558594 18.675781 C 11.738281 21.417969 13.101562 23.320312 14.695312 25.148438 C 15.523438 26.097656 15.8125 27.019531 15.8125 27.019531 C 15.8125 27.019531 15.652344 25.976562 14.933594 25.125 C 13.449219 23.375 12.039062 21.191406 11.933594 18.667969 Z M 11.933594 18.667969 "/>
<path style=" stroke:none;fill-rule:nonzero;fill:rgb(0%,0%,0%);fill-opacity:1;" d="M 24.089844 12.246094 L 24.089844 12.875 C 24.3125 12.609375 24.738281 12.664062 24.738281 12.664062 L 24.738281 13.574219 C 24.738281 13.574219 24.722656 14.019531 24.5625 14.210938 L 25.488281 14.210938 C 25.328125 14.019531 25.3125 13.574219 25.3125 13.574219 L 25.3125 12.664062 C 25.3125 12.664062 25.742188 12.609375 25.960938 12.875 L 25.960938 12.246094 Z M 24.089844 12.246094 "/>
<path style=" stroke:none;fill-rule:nonzero;fill:rgb(0%,0%,0%);fill-opacity:1;" d="M 23.691406 8.511719 C 23.988281 8.742188 24.15625 8.777344 24.164062 8.78125 L 24.28125 8.835938 L 24.28125 8.242188 L 23.191406 7.792969 C 23.191406 7.792969 23.203125 8.136719 23.691406 8.511719 Z M 23.691406 8.511719 "/>
<path style=" stroke:none;fill-rule:nonzero;fill:rgb(0%,0%,0%);fill-opacity:1;" d="M 26.277344 8.511719 C 26.769531 8.136719 26.78125 7.792969 26.78125 7.792969 L 25.691406 8.242188 L 25.691406 8.835938 L 25.804688 8.78125 C 25.8125 8.777344 25.984375 8.742188 26.277344 8.511719 Z M 26.277344 8.511719 "/>
<path style=" stroke:none;fill-rule:nonzero;fill:rgb(0%,0%,0%);fill-opacity:1;" d="M 28.238281 6.09375 C 28.238281 5.195312 26.695312 4.386719 24.988281 4.386719 L 24.980469 4.386719 C 23.277344 4.386719 21.730469 5.195312 21.730469 6.09375 L 21.765625 6.316406 L 22.445312 10.148438 L 21.761719 10.539062 L 19.996094 11.550781 L 20 11.550781 C 20 11.550781 19.601562 11.75 19.417969 11.875 C 18.746094 12.332031 18.601562 13.003906 18.992188 13.28125 C 19.089844 12.734375 19.53125 12.164062 20.351562 12.164062 C 20.945312 12.164062 21.398438 12.464844 21.761719 12.914062 C 21.855469 13.027344 21.945312 13.148438 22.027344 13.28125 C 22.132812 13.445312 22.234375 13.589844 22.335938 13.726562 L 17.78125 13.726562 C 18.117188 14.386719 18.433594 15.089844 18.433594 15.847656 L 18.433594 25.734375 C 18.433594 28.128906 20.3125 29.269531 22.339844 29.269531 C 23.910156 29.269531 24.121094 29.199219 24.988281 30.046875 C 25.847656 29.199219 26.058594 29.269531 27.628906 29.269531 C 29.660156 29.269531 31.535156 28.128906 31.535156 25.734375 L 31.535156 15.847656 C 31.535156 15.089844 31.851562 14.386719 32.1875 13.726562 L 27.632812 13.726562 C 27.734375 13.589844 27.835938 13.445312 27.9375 13.28125 C 28.023438 13.148438 28.113281 13.027344 28.203125 12.914062 C 28.570312 12.460938 29.023438 12.164062 29.613281 12.164062 C 30.4375 12.164062 30.875 12.734375 30.972656 13.28125 C 31.363281 13.003906 31.222656 12.332031 30.546875 11.875 C 30.367188 11.75 29.96875 11.550781 29.96875 11.550781 L 29.972656 11.550781 L 28.203125 10.539062 L 27.523438 10.148438 L 28.203125 6.316406 Z M 22.402344 6.542969 L 24.792969 7.335938 L 24.792969 11.023438 L 23.035156 10.113281 Z M 22.898438 14.371094 C 23.289062 14.753906 23.671875 14.992188 24.039062 15.125 C 23.992188 15.308594 23.929688 15.691406 24.105469 16.070312 C 24.25 16.375 24.511719 16.613281 24.886719 16.769531 C 24.929688 17.148438 25.171875 17.71875 25.847656 17.972656 C 25.554688 18.265625 25.265625 18.539062 25.148438 18.652344 L 22.40625 18.609375 C 22.34375 18.578125 22.238281 18.511719 22.191406 18.414062 C 22.183594 18.398438 22.175781 18.390625 22.171875 18.378906 L 22.617188 18.449219 C 22.628906 18.449219 22.636719 18.449219 22.648438 18.449219 C 22.734375 18.449219 22.808594 18.390625 22.824219 18.304688 C 22.839844 18.207031 22.773438 18.117188 22.675781 18.105469 L 22.125 18.019531 L 22.734375 15.949219 L 22.15625 14.757812 L 21.230469 15.71875 L 21.175781 17.871094 L 20.550781 17.773438 C 20.457031 17.753906 20.363281 17.824219 20.347656 17.921875 C 20.332031 18.015625 20.398438 18.105469 20.496094 18.121094 L 20.757812 18.160156 C 20.664062 18.214844 20.601562 18.253906 20.59375 18.257812 L 20.542969 18.296875 L 20.527344 18.359375 C 20.375 18.964844 20.71875 19.535156 21.089844 19.792969 L 21.074219 19.867188 C 21.058594 19.960938 21.082031 20.050781 21.136719 20.128906 C 21.191406 20.207031 21.273438 20.253906 21.367188 20.269531 C 21.386719 20.269531 21.40625 20.273438 21.425781 20.273438 C 21.585938 20.273438 21.722656 20.164062 21.765625 20.003906 C 21.902344 20.019531 22.027344 20.023438 22.113281 20.023438 L 22.1875 20.023438 L 25.785156 20.660156 L 25.84375 20.621094 C 26.132812 20.425781 27.222656 19.644531 27.582031 19.382812 C 27.679688 19.46875 27.789062 19.542969 27.925781 19.605469 C 27.808594 19.988281 27.800781 20.574219 28.261719 21.039062 L 19.09375 21.039062 L 19.09375 15.847656 C 19.09375 15.347656 18.941406 14.839844 18.765625 14.375 L 22.898438 14.375 Z M 27.34375 19.121094 C 26.976562 19.382812 26.042969 20.050781 25.703125 20.285156 L 22.433594 19.710938 C 22.441406 19.679688 22.449219 19.652344 22.457031 19.625 C 22.5 19.457031 22.542969 19.230469 22.546875 18.964844 L 25.292969 19.007812 L 25.34375 18.953125 C 25.386719 18.914062 26.257812 18.089844 26.703125 17.613281 C 26.808594 17.742188 26.9375 17.867188 27.113281 17.976562 C 27.050781 18.292969 27.078125 18.742188 27.34375 19.121094 Z M 21.871094 18.5625 C 21.945312 18.722656 22.085938 18.828125 22.183594 18.890625 C 22.179688 19.039062 22.164062 19.269531 22.125 19.472656 C 22.117188 19.519531 22.105469 19.5625 22.089844 19.601562 C 22.082031 19.628906 22.078125 19.652344 22.070312 19.667969 C 21.925781 19.667969 21.644531 19.652344 21.410156 19.570312 C 21.152344 19.476562 20.769531 19.011719 20.859375 18.503906 C 20.972656 18.4375 21.226562 18.296875 21.46875 18.296875 C 21.65625 18.292969 21.78125 18.378906 21.871094 18.5625 Z M 21.53125 17.925781 L 21.585938 15.859375 L 22.058594 15.367188 L 22.355469 15.976562 L 21.769531 17.960938 Z M 27.3125 28.632812 C 27.132812 28.632812 26.96875 28.632812 26.820312 28.640625 L 27.210938 27.453125 C 27.269531 27.289062 26.964844 27.074219 26.835938 26.890625 C 27.027344 27.007812 27.523438 27.265625 27.765625 27.371094 C 27.738281 27.410156 27.3125 28.632812 27.3125 28.632812 Z M 28.535156 27.28125 L 28.28125 28.582031 C 28.117188 28.601562 27.945312 28.613281 27.769531 28.621094 L 28.035156 27.371094 C 28.117188 27 27.097656 26.886719 26.597656 26.15625 C 26.351562 26.425781 25.890625 26.507812 25.425781 26.507812 C 25 26.507812 24.578125 26.4375 24.320312 26.390625 C 24.257812 26.378906 24.195312 26.371094 24.132812 26.371094 C 23.984375 26.371094 23.847656 26.417969 23.753906 26.570312 L 23.679688 26.695312 L 22.292969 26.375 L 21.949219 26.933594 C 21.902344 27.023438 21.898438 27.101562 21.976562 27.183594 L 22.070312 27.285156 C 22.007812 27.484375 21.71875 27.78125 21.71875 27.78125 L 21.511719 27.53125 C 21.347656 27.351562 21.375 27.023438 21.546875 26.722656 L 22.097656 25.8125 L 23.269531 25.976562 L 23.085938 25.570312 C 22.839844 25.03125 23.214844 24.34375 23.253906 23.949219 C 23.242188 24.066406 23.128906 24.09375 23 24.09375 C 22.878906 24.09375 22.746094 24.070312 22.660156 24.070312 C 22.625 24.070312 22.597656 24.074219 22.582031 24.085938 L 22.261719 24.277344 L 22.011719 24.058594 C 21.980469 24.015625 21.972656 23.917969 22.046875 23.847656 L 22.625 23.207031 L 21.941406 22.421875 L 22.902344 22.894531 L 23.195312 22.546875 C 23.273438 22.625 23.238281 22.828125 23.238281 22.828125 C 23.539062 22.835938 24.378906 23.289062 24.425781 24.355469 C 24.429688 24.386719 24.429688 24.421875 24.429688 24.457031 C 24.429688 24.457031 24.4375 24.472656 24.449219 24.492188 C 24.511719 24.574219 24.671875 24.777344 24.882812 24.796875 L 26.210938 24.925781 L 26.214844 24.925781 C 26.359375 24.925781 26.652344 24.757812 27.023438 24.757812 C 27.222656 24.757812 27.449219 24.808594 27.691406 24.957031 C 27.691406 24.957031 27.8125 24.863281 28.007812 24.855469 C 28.023438 24.851562 28.039062 24.851562 28.054688 24.851562 C 28.648438 24.851562 28.894531 25.382812 29.214844 25.820312 C 29.457031 26.152344 29.777344 26.648438 29.777344 26.648438 C 29.65625 26.789062 29.546875 26.863281 29.363281 26.863281 C 29.3125 26.863281 29.253906 26.859375 29.191406 26.847656 C 28.554688 26.730469 28.460938 25.445312 28.097656 25.339844 C 28.078125 25.335938 28.058594 25.335938 28.039062 25.335938 C 27.921875 25.335938 27.871094 25.4375 27.871094 25.4375 C 28.035156 25.875 27.941406 26.054688 28.117188 26.390625 C 28.253906 26.640625 28.492188 26.847656 28.589844 26.945312 C 28.589844 26.949219 28.5625 27.136719 28.535156 27.28125 Z M 21.402344 26.050781 L 21.460938 26.203125 C 21.421875 26.332031 20.960938 26.519531 20.960938 26.519531 L 20.859375 26.304688 C 20.753906 26.078125 20.777344 25.695312 21.097656 25.460938 L 21.84375 25.015625 L 22.636719 25.179688 C 22.621094 25.425781 22.769531 25.609375 22.769531 25.609375 L 21.941406 25.453125 L 21.445312 25.789062 C 21.363281 25.847656 21.355469 25.953125 21.402344 26.050781 Z M 28.65625 28.511719 L 28.886719 27.347656 C 28.898438 27.277344 28.914062 27.199219 28.921875 27.132812 C 28.988281 27.15625 29.054688 27.179688 29.128906 27.191406 C 29.214844 27.207031 29.292969 27.214844 29.363281 27.214844 C 29.710938 27.214844 29.914062 27.035156 30.046875 26.882812 L 30.222656 26.683594 L 30.082031 26.464844 C 30.066406 26.445312 29.753906 25.953125 29.507812 25.617188 C 29.460938 25.554688 29.414062 25.488281 29.371094 25.414062 C 29.09375 25.011719 28.746094 24.503906 28.054688 24.503906 L 27.992188 24.503906 C 27.875 24.511719 27.777344 24.53125 27.699219 24.5625 C 27.480469 24.460938 27.257812 24.410156 27.023438 24.410156 C 26.738281 24.410156 26.496094 24.488281 26.335938 24.542969 C 26.289062 24.554688 26.246094 24.570312 26.214844 24.574219 L 24.917969 24.449219 C 24.902344 24.445312 24.847656 24.417969 24.785156 24.339844 L 24.785156 24.335938 L 25.0625 24.222656 C 24.984375 23.308594 24.089844 22.742188 23.585938 22.550781 C 23.566406 22.460938 23.519531 22.367188 23.441406 22.292969 L 23.164062 22.035156 L 22.917969 22.324219 L 22.796875 22.46875 L 20.980469 21.738281 L 22.164062 23.191406 L 21.695312 23.886719 C 21.523438 24.0625 21.714844 24.242188 21.714844 24.242188 L 22.195312 24.566406 L 22.695312 24.382812 C 22.710938 24.382812 22.726562 24.386719 22.742188 24.390625 C 22.71875 24.464844 22.6875 24.753906 22.667969 24.835938 L 21.800781 24.667969 L 20.890625 25.175781 C 20.421875 25.511719 20.359375 26.070312 20.53125 26.449219 L 20.632812 26.667969 L 20.777344 26.972656 L 21.097656 26.84375 C 21.101562 26.84375 21.105469 26.839844 21.109375 26.839844 C 20.992188 27.195312 21.039062 27.539062 21.246094 27.761719 L 21.4375 28 L 21.695312 28.320312 L 21.976562 28.023438 C 22.058594 27.941406 22.328125 27.644531 22.414062 27.390625 L 22.472656 27.199219 L 22.335938 27.050781 L 22.3125 27.023438 L 22.46875 26.773438 L 23.597656 27.035156 L 23.851562 27.089844 L 23.988281 26.871094 L 24.0625 26.753906 C 24.074219 26.726562 24.078125 26.722656 24.132812 26.722656 C 24.171875 26.722656 24.210938 26.726562 24.253906 26.738281 C 24.679688 26.816406 25.074219 26.855469 25.421875 26.855469 C 25.761719 26.855469 25.964844 26.839844 26.207031 26.761719 C 26.207031 26.761719 26.8125 27.4375 26.835938 27.464844 L 26.464844 28.589844 L 26.449219 28.660156 C 25.742188 28.714844 25.398438 28.867188 24.984375 29.273438 C 24.382812 28.6875 23.957031 28.625 22.339844 28.625 C 20.402344 28.625 19.089844 27.511719 19.089844 25.734375 L 19.089844 21.386719 L 30.875 21.386719 L 30.878906 25.734375 C 30.878906 27.175781 30.019531 28.183594 28.65625 28.511719 Z M 31.207031 14.371094 C 31.027344 14.835938 30.875 15.34375 30.875 15.847656 L 30.878906 19.089844 C 30.1875 18.976562 30.105469 18.246094 30.101562 18.214844 L 30.089844 18.066406 L 29.941406 18.050781 C 29.640625 18.023438 29.441406 17.898438 29.273438 17.738281 C 28.933594 17.40625 28.933594 16.867188 28.933594 16.863281 C 28.929688 16.890625 28.5625 17.398438 28.988281 17.949219 C 29.167969 18.183594 29.429688 18.324219 29.765625 18.382812 C 29.84375 18.789062 30.152344 19.359375 30.878906 19.445312 L 30.878906 21.035156 L 28.839844 21.035156 C 27.898438 20.523438 28.296875 19.617188 28.316406 19.582031 L 28.398438 19.40625 L 28.21875 19.339844 C 27.199219 18.972656 27.480469 17.972656 27.492188 17.933594 L 27.535156 17.785156 L 27.398438 17.722656 C 26.554688 17.339844 26.671875 16.308594 26.679688 16.265625 C 26.421875 16.472656 26.328125 16.890625 26.507812 17.304688 C 26.410156 17.410156 26.28125 17.542969 26.140625 17.683594 C 25.269531 17.46875 25.242188 16.683594 25.242188 16.644531 L 25.242188 16.523438 L 25.125 16.480469 C 24.785156 16.359375 24.554688 16.171875 24.4375 15.921875 C 24.308594 15.648438 24.355469 15.359375 24.390625 15.21875 C 24.492188 15.242188 24.589844 15.257812 24.683594 15.265625 C 24.785156 15.277344 24.882812 15.28125 24.984375 15.28125 L 25 15.28125 C 25.101562 15.28125 25.199219 15.277344 25.296875 15.265625 C 25.839844 15.214844 26.449219 14.984375 27.082031 14.371094 Z M 28.03125 11.089844 L 28.835938 11.550781 L 28.847656 11.550781 L 29.050781 11.664062 C 28.59375 11.789062 28.246094 12.011719 27.957031 12.304688 C 27.945312 12.316406 27.933594 12.324219 27.925781 12.335938 C 27.855469 12.40625 27.789062 12.480469 27.726562 12.558594 C 27.714844 12.574219 27.703125 12.589844 27.691406 12.605469 C 27.628906 12.683594 27.570312 12.765625 27.515625 12.847656 C 27.503906 12.863281 27.496094 12.878906 27.484375 12.890625 C 27.417969 12.988281 27.355469 13.09375 27.289062 13.203125 C 26.714844 14.171875 25.800781 14.75 24.988281 14.75 C 24.175781 14.75 23.257812 14.171875 22.6875 13.203125 C 22.625 13.097656 22.5625 12.996094 22.492188 12.894531 C 22.480469 12.878906 22.46875 12.859375 22.457031 12.84375 C 22.398438 12.761719 22.34375 12.683594 22.285156 12.609375 C 22.269531 12.589844 22.257812 12.574219 22.242188 12.554688 C 22.179688 12.480469 22.117188 12.40625 22.050781 12.335938 C 22.039062 12.328125 22.03125 12.316406 22.015625 12.304688 C 21.722656 12.011719 21.378906 11.789062 20.921875 11.664062 L 21.128906 11.550781 L 21.136719 11.550781 L 21.941406 11.089844 L 22.769531 10.625 L 24.980469 11.808594 L 24.984375 11.804688 L 24.988281 11.808594 L 27.199219 10.625 Z M 26.9375 10.113281 L 25.175781 11.023438 L 25.175781 7.335938 L 27.566406 6.542969 Z M 24.984375 6.933594 L 22.363281 5.917969 C 22.585938 5.398438 23.617188 4.957031 24.984375 4.957031 C 26.355469 4.957031 27.386719 5.398438 27.605469 5.917969 Z M 24.984375 6.933594 "/>
<path style=" stroke:none;fill-rule:nonzero;fill:rgb(0%,0%,0%);fill-opacity:1;" d="M 4.714844 48.804688 L 4.714844 44.242188 L 7.441406 44.242188 L 7.441406 42.582031 L 0 42.582031 L 0 44.242188 L 2.726562 44.242188 L 2.726562 48.804688 Z M 10.222656 42.582031 L 8.238281 42.582031 L 8.238281 48.804688 L 10.222656 48.804688 Z M 11.675781 42.582031 L 11.675781 48.804688 L 13.503906 48.804688 L 13.503906 45.367188 L 16.90625 48.804688 L 18.601562 48.804688 L 18.601562 42.582031 L 16.777344 42.582031 L 16.777344 45.992188 L 13.453125 42.582031 Z M 22.507812 46.449219 L 24.796875 48.804688 L 27.355469 48.804688 L 24.164062 45.5625 L 27.234375 42.582031 L 24.824219 42.582031 L 22.507812 44.921875 L 21.976562 44.921875 L 21.976562 42.582031 L 20.058594 42.582031 L 20.058594 48.804688 L 21.976562 48.804688 L 21.976562 46.449219 Z M 31.304688 42.410156 C 28.722656 42.410156 27.171875 43.847656 27.171875 45.707031 C 27.171875 47.5625 28.722656 49 31.304688 49 C 33.875 49 35.421875 47.5625 35.421875 45.707031 C 35.421875 43.847656 33.875 42.410156 31.304688 42.410156 Z M 31.304688 47.484375 C 30.019531 47.484375 29.199219 46.726562 29.199219 45.707031 C 29.199219 44.6875 30.019531 43.941406 31.304688 43.941406 C 32.578125 43.941406 33.410156 44.6875 33.410156 45.707031 C 33.410156 46.726562 32.578125 47.484375 31.304688 47.484375 Z M 42.707031 42.582031 L 36.335938 42.582031 L 36.335938 48.804688 L 38.257812 48.804688 L 38.257812 46.632812 L 42.425781 46.632812 L 42.425781 45.261719 L 38.257812 45.261719 L 38.257812 44.164062 L 42.707031 44.164062 Z M 49.933594 42.582031 L 43.566406 42.582031 L 43.566406 48.804688 L 45.484375 48.804688 L 45.484375 46.632812 L 49.65625 46.632812 L 49.65625 45.261719 L 45.484375 45.261719 L 45.484375 44.164062 L 49.933594 44.164062 Z M 49.933594 42.582031 "/>
</g>
</svg>
